<svg width="25" height="25" viewBox="0 0 25 25" fill="none" xmlns="http://www.w3.org/2000/svg">
<path d="M9.43375 2.05651L10.4478 3.87359C11.363 5.5134 10.9956 7.66456 9.55422 9.10593C9.55422 9.10593 7.80606 10.8544 10.9758 14.0242C14.1445 17.193 15.8941 15.4458 15.8941 15.4458C17.3355 14.0044 19.4866 13.637 21.1264 14.5522L22.9434 15.5662C25.4197 16.9481 25.712 20.4206 23.5356 22.5972C22.2278 23.905 20.6256 24.9226 18.8545 24.9897C15.8731 25.1028 10.8098 24.3483 5.73078 19.2692C0.651768 14.1901 -0.102794 9.1269 0.0102376 6.14545C0.0773782 4.37437 1.095 2.77223 2.40283 1.46442C4.57931 -0.712062 8.05183 -0.419624 9.43375 2.05651Z" fill="black"/>
</svg>
