<svg width="345" height="60" viewBox="0 0 345 60" fill="none" xmlns="http://www.w3.org/2000/svg">
<rect x="0.5" y="0.5" width="344" height="59" rx="29.5" stroke="url(#paint0_radial_14_257)"/>
<rect x="10" y="10" width="40" height="40" rx="20" fill="url(#paint1_radial_14_257)"/>
<path d="M110.237 42C109.021 42 107.965 41.744 107.069 41.232C106.195 40.6987 105.512 39.984 105.021 39.088C104.552 38.1707 104.317 37.1467 104.317 36.016V19.6H107.389V36.4C107.389 37.232 107.645 37.9253 108.157 38.48C108.691 39.0133 109.384 39.28 110.237 39.28H116.253V42H110.237ZM127.827 42C126.035 42 124.446 41.6693 123.059 41.008C121.672 40.3253 120.584 39.376 119.795 38.16C119.027 36.9227 118.643 35.4827 118.643 33.84C118.643 32.2187 118.974 30.768 119.635 29.488C120.296 28.1867 121.214 27.1627 122.387 26.416C123.56 25.6693 124.926 25.296 126.483 25.296C128.168 25.296 129.566 25.6587 130.675 26.384C131.806 27.1093 132.648 28.0907 133.203 29.328C133.758 30.544 134.035 31.9093 134.035 33.424C134.035 33.6587 134.024 33.904 134.003 34.16C134.003 34.416 133.982 34.64 133.939 34.832H121.779C121.886 35.8347 122.216 36.688 122.771 37.392C123.326 38.0747 124.03 38.5973 124.883 38.96C125.758 39.3013 126.718 39.472 127.763 39.472H132.019V42H127.827ZM121.747 32.752H131.059C131.059 32.3467 131.016 31.92 130.931 31.472C130.846 31.0027 130.696 30.5547 130.483 30.128C130.27 29.68 129.982 29.2853 129.619 28.944C129.278 28.5813 128.84 28.2933 128.307 28.08C127.795 27.8667 127.187 27.76 126.483 27.76C125.736 27.76 125.075 27.9093 124.499 28.208C123.944 28.4853 123.464 28.8693 123.059 29.36C122.654 29.8293 122.344 30.3627 122.131 30.96C121.918 31.5573 121.79 32.1547 121.747 32.752ZM144.573 42.384C142.994 42.384 141.629 42.0107 140.477 41.264C139.325 40.496 138.44 39.4613 137.821 38.16C137.202 36.8587 136.893 35.4187 136.893 33.84C136.893 32.24 137.234 30.8 137.917 29.52C138.6 28.2187 139.581 27.1947 140.861 26.448C142.141 25.68 143.677 25.296 145.469 25.296C147.197 25.296 148.68 25.6693 149.917 26.416C151.154 27.1627 152.104 28.176 152.765 29.456C153.448 30.736 153.789 32.1653 153.789 33.744V42H150.813V38.672H150.749C150.429 39.2907 149.992 39.888 149.437 40.464C148.904 41.0187 148.232 41.4773 147.421 41.84C146.61 42.2027 145.661 42.384 144.573 42.384ZM145.341 39.856C146.408 39.856 147.346 39.6 148.157 39.088C148.989 38.5547 149.629 37.8293 150.077 36.912C150.546 35.9733 150.781 34.928 150.781 33.776C150.781 32.6453 150.557 31.632 150.109 30.736C149.682 29.84 149.064 29.136 148.253 28.624C147.442 28.0907 146.493 27.824 145.405 27.824C144.253 27.824 143.261 28.0907 142.429 28.624C141.618 29.1573 140.989 29.8827 140.541 30.8C140.114 31.696 139.901 32.72 139.901 33.872C139.901 34.9813 140.114 35.9947 140.541 36.912C140.968 37.808 141.586 38.5227 142.397 39.056C143.208 39.5893 144.189 39.856 145.341 39.856ZM158.381 42V30.32C158.381 28.8693 158.786 27.7387 159.597 26.928C160.429 26.096 161.57 25.68 163.021 25.68H166.381V28.208H163.565C162.861 28.208 162.306 28.4107 161.901 28.816C161.517 29.2213 161.325 29.7867 161.325 30.512V42H158.381ZM169.102 42V32.56C169.102 31.1093 169.422 29.84 170.062 28.752C170.723 27.664 171.63 26.8213 172.782 26.224C173.934 25.6053 175.246 25.296 176.718 25.296C178.211 25.296 179.523 25.6053 180.654 26.224C181.806 26.8213 182.702 27.664 183.342 28.752C184.003 29.84 184.334 31.1093 184.334 32.56V42H181.39V32.592C181.39 31.6107 181.166 30.768 180.718 30.064C180.291 29.3387 179.715 28.784 178.99 28.4C178.286 28.016 177.528 27.824 176.718 27.824C175.907 27.824 175.139 28.016 174.414 28.4C173.71 28.784 173.134 29.3387 172.686 30.064C172.259 30.768 172.046 31.6107 172.046 32.592V42H169.102ZM212.581 42.384C211.429 42.384 210.394 42.1173 209.477 41.584C208.559 41.0507 207.834 40.3253 207.301 39.408C206.789 38.4693 206.533 37.3813 206.533 36.144V25.008C206.533 24.432 206.394 23.9093 206.117 23.44C205.839 22.9707 205.466 22.5973 204.997 22.32C204.527 22.0427 204.015 21.904 203.461 21.904C202.906 21.904 202.394 22.0427 201.925 22.32C201.477 22.5973 201.114 22.9707 200.837 23.44C200.581 23.9093 200.453 24.432 200.453 25.008V42H197.381V25.424C197.381 24.2507 197.637 23.1947 198.149 22.256C198.661 21.3173 199.375 20.5813 200.293 20.048C201.21 19.4933 202.266 19.216 203.461 19.216C204.677 19.216 205.743 19.4933 206.661 20.048C207.578 20.5813 208.293 21.3173 208.805 22.256C209.317 23.1947 209.573 24.2507 209.573 25.424V36.56C209.573 37.1573 209.711 37.6907 209.989 38.16C210.266 38.608 210.629 38.9707 211.077 39.248C211.546 39.5253 212.047 39.664 212.581 39.664C213.114 39.664 213.605 39.5253 214.053 39.248C214.501 38.9707 214.853 38.608 215.109 38.16C215.386 37.6907 215.525 37.1573 215.525 36.56V25.424C215.525 24.2507 215.781 23.1947 216.293 22.256C216.826 21.3173 217.551 20.5813 218.469 20.048C219.386 19.4933 220.453 19.216 221.669 19.216C222.863 19.216 223.919 19.4933 224.837 20.048C225.754 20.5813 226.469 21.3173 226.981 22.256C227.493 23.1947 227.749 24.2507 227.749 25.424V42H224.677V25.008C224.677 24.432 224.538 23.9093 224.261 23.44C224.005 22.9707 223.642 22.5973 223.173 22.32C222.725 22.0427 222.223 21.904 221.669 21.904C221.093 21.904 220.57 22.0427 220.101 22.32C219.653 22.5973 219.29 22.9707 219.013 23.44C218.735 23.9093 218.597 24.432 218.597 25.008V36.144C218.597 37.3813 218.33 38.4693 217.797 39.408C217.285 40.3253 216.57 41.0507 215.653 41.584C214.757 42.1173 213.733 42.384 212.581 42.384ZM240 42.384C238.336 42.384 236.864 42.0107 235.584 41.264C234.304 40.496 233.291 39.472 232.544 38.192C231.798 36.8907 231.424 35.44 231.424 33.84C231.424 32.24 231.798 30.8 232.544 29.52C233.291 28.2187 234.304 27.1947 235.584 26.448C236.864 25.68 238.336 25.296 240 25.296C241.664 25.296 243.136 25.68 244.416 26.448C245.718 27.1947 246.731 28.208 247.456 29.488C248.203 30.768 248.576 32.2187 248.576 33.84C248.576 35.44 248.203 36.8907 247.456 38.192C246.731 39.472 245.718 40.496 244.416 41.264C243.136 42.0107 241.664 42.384 240 42.384ZM240 39.856C241.131 39.856 242.112 39.5893 242.944 39.056C243.776 38.5227 244.427 37.808 244.896 36.912C245.366 35.9947 245.6 34.9707 245.6 33.84C245.6 32.7093 245.366 31.696 244.896 30.8C244.427 29.8827 243.776 29.1573 242.944 28.624C242.112 28.0907 241.131 27.824 240 27.824C238.891 27.824 237.91 28.0907 237.056 28.624C236.224 29.1573 235.574 29.8827 235.104 30.8C234.635 31.696 234.4 32.7093 234.4 33.84C234.4 34.9707 234.635 35.9947 235.104 36.912C235.574 37.808 236.224 38.5227 237.056 39.056C237.91 39.5893 238.891 39.856 240 39.856ZM252.256 42V30.32C252.256 28.8693 252.661 27.7387 253.472 26.928C254.304 26.096 255.445 25.68 256.896 25.68H260.256V28.208H257.44C256.736 28.208 256.181 28.4107 255.776 28.816C255.392 29.2213 255.2 29.7867 255.2 30.512V42H252.256ZM271.265 42C269.473 42 267.883 41.6693 266.497 41.008C265.11 40.3253 264.022 39.376 263.233 38.16C262.465 36.9227 262.081 35.4827 262.081 33.84C262.081 32.2187 262.411 30.768 263.073 29.488C263.734 28.1867 264.651 27.1627 265.825 26.416C266.998 25.6693 268.363 25.296 269.921 25.296C271.606 25.296 273.003 25.6587 274.113 26.384C275.243 27.1093 276.086 28.0907 276.641 29.328C277.195 30.544 277.473 31.9093 277.473 33.424C277.473 33.6587 277.462 33.904 277.441 34.16C277.441 34.416 277.419 34.64 277.377 34.832H265.217C265.323 35.8347 265.654 36.688 266.209 37.392C266.763 38.0747 267.467 38.5973 268.321 38.96C269.195 39.3013 270.155 39.472 271.201 39.472H275.457V42H271.265ZM265.185 32.752H274.497C274.497 32.3467 274.454 31.92 274.369 31.472C274.283 31.0027 274.134 30.5547 273.921 30.128C273.707 29.68 273.419 29.2853 273.057 28.944C272.715 28.5813 272.278 28.2933 271.745 28.08C271.233 27.8667 270.625 27.76 269.921 27.76C269.174 27.76 268.513 27.9093 267.937 28.208C267.382 28.4853 266.902 28.8693 266.497 29.36C266.091 29.8293 265.782 30.3627 265.569 30.96C265.355 31.5573 265.227 32.1547 265.185 32.752Z" fill="black"/>
<defs>
<radialGradient id="paint0_radial_14_257" cx="0" cy="0" r="1" gradientUnits="userSpaceOnUse" gradientTransform="translate(301.875 10.5) rotate(159.063) scale(138.521 287.804)">
<stop stop-color="#F08200"/>
<stop offset="0.52" stop-color="#00E0FF"/>
<stop offset="1" stop-color="#0043F0"/>
</radialGradient>
<radialGradient id="paint1_radial_14_257" cx="0" cy="0" r="1" gradientUnits="userSpaceOnUse" gradientTransform="translate(24.5 47.5) rotate(-69.8142) scale(36.225)">
<stop stop-color="#EDB013"/>
<stop offset="0.47" stop-color="#0500F2"/>
<stop offset="1" stop-color="#00E0FF"/>
</radialGradient>
</defs>
</svg>
