<svg id="visual" viewBox="0 0 960 100" width="960" height="100" xmlns="http://www.w3.org/2000/svg" xmlns:xlink="http://www.w3.org/1999/xlink" version="1.1"><rect x="0" y="0" width="960" height="100" fill="#ffffff"></rect><path d="M0 51L40 49.8C80 48.7 160 46.3 240 51.3C320 56.3 400 68.7 480 75C560 81.3 640 81.7 720 74.7C800 67.7 880 53.3 920 46.2L960 39L960 101L920 101C880 101 800 101 720 101C640 101 560 101 480 101C400 101 320 101 240 101C160 101 80 101 40 101L0 101Z" fill="#E2F19E" stroke-linecap="round" stroke-linejoin="miter"></path></svg>