<svg width="350" height="364" viewBox="0 0 350 364" fill="none" xmlns="http://www.w3.org/2000/svg">
<g filter="url(#filter0_d_28_44)">
<g clip-path="url(#clip0_28_44)">
<rect x="33" y="71.5891" width="140" height="140" rx="16" transform="rotate(-16 33 71.5891)" fill="#94FF0D"/>
<g filter="url(#filter1_d_28_44)">
<rect x="52.583" y="79.9863" width="45" height="45" rx="8" transform="rotate(-16 52.583 79.9863)" fill="#F7F7F7"/>
</g>
<rect x="108" y="64.4036" width="45" height="45" rx="8" transform="rotate(-16 108 64.4036)" fill="#333131"/>
<rect x="123" y="120.404" width="45" height="45" rx="8" transform="rotate(-16 123 120.404)" fill="#333131"/>
<rect x="67.583" y="135.986" width="45" height="45" rx="8" transform="rotate(-16 67.583 135.986)" fill="#333131"/>
</g>
</g>
<g filter="url(#filter2_d_28_44)">
<g clip-path="url(#clip1_28_44)">
<rect x="136" y="135.589" width="140" height="140" rx="16" transform="rotate(-16 136 135.589)" fill="#94FF0D"/>
<g filter="url(#filter3_d_28_44)">
<rect x="155.583" y="143.987" width="45" height="45" rx="8" transform="rotate(-16 155.583 143.987)" fill="#F7F7F7"/>
</g>
<g filter="url(#filter4_d_28_44)">
<rect x="211" y="128.404" width="45" height="45" rx="8" transform="rotate(-16 211 128.404)" fill="#F6F6F6"/>
</g>
<rect x="226" y="184.404" width="45" height="45" rx="8" transform="rotate(-16 226 184.404)" fill="#333131"/>
<rect x="170.583" y="199.987" width="45" height="45" rx="8" transform="rotate(-16 170.583 199.987)" fill="#333131"/>
</g>
</g>
<path d="M69.1581 328V323.52H78.7261C79.1528 323.52 79.5368 323.413 79.8781 323.2C80.2195 322.987 80.4861 322.709 80.6781 322.368C80.8915 322.027 80.9981 321.653 80.9981 321.248C80.9981 320.821 80.8915 320.437 80.6781 320.096C80.4861 319.755 80.2195 319.477 79.8781 319.264C79.5368 319.051 79.1528 318.944 78.7261 318.944H75.2701C73.9688 318.944 72.7848 318.688 71.7181 318.176C70.6515 317.664 69.7981 316.917 69.1581 315.936C68.5395 314.933 68.2301 313.739 68.2301 312.352C68.2301 310.987 68.5288 309.803 69.1261 308.8C69.7235 307.797 70.5341 307.019 71.5581 306.464C72.5821 305.888 73.7128 305.6 74.9501 305.6H84.8381V310.08H75.5581C75.1741 310.08 74.8221 310.176 74.5021 310.368C74.1821 310.56 73.9368 310.816 73.7661 311.136C73.5955 311.456 73.5101 311.808 73.5101 312.192C73.5101 312.576 73.5955 312.928 73.7661 313.248C73.9368 313.547 74.1821 313.792 74.5021 313.984C74.8221 314.176 75.1741 314.272 75.5581 314.272H79.1741C80.6035 314.272 81.8408 314.549 82.8861 315.104C83.9528 315.637 84.7741 316.395 85.3501 317.376C85.9475 318.336 86.2461 319.467 86.2461 320.768C86.2461 322.304 85.9368 323.616 85.3181 324.704C84.7208 325.771 83.9101 326.592 82.8861 327.168C81.8621 327.723 80.7315 328 79.4941 328H69.1581ZM97.6976 328C95.8416 328 94.2096 327.659 92.8016 326.976C91.3936 326.272 90.295 325.312 89.5056 324.096C88.7376 322.859 88.3536 321.429 88.3536 319.808C88.3536 318.016 88.727 316.48 89.4736 315.2C90.2203 313.92 91.2123 312.939 92.4496 312.256C93.7083 311.552 95.095 311.2 96.6096 311.2C98.3376 311.2 99.7776 311.563 100.93 312.288C102.103 313.013 102.988 314.005 103.586 315.264C104.183 316.501 104.482 317.92 104.482 319.52C104.482 319.797 104.46 320.128 104.418 320.512C104.396 320.875 104.364 321.163 104.322 321.376H93.5696C93.6976 321.931 93.943 322.4 94.3056 322.784C94.6683 323.168 95.127 323.456 95.6816 323.648C96.2363 323.819 96.855 323.904 97.5376 323.904H102.562V328H97.6976ZM93.4416 318.272H99.6816C99.639 317.931 99.575 317.6 99.4896 317.28C99.4043 316.96 99.2656 316.683 99.0736 316.448C98.903 316.192 98.7003 315.979 98.4656 315.808C98.231 315.616 97.9536 315.467 97.6336 315.36C97.335 315.253 96.9936 315.2 96.6096 315.2C96.119 315.2 95.6816 315.285 95.2976 315.456C94.9136 315.627 94.5936 315.861 94.3376 316.16C94.0816 316.437 93.879 316.768 93.7296 317.152C93.6016 317.515 93.5056 317.888 93.4416 318.272ZM107.372 328V304.64H112.332V328H107.372ZM124.573 328C122.717 328 121.085 327.659 119.677 326.976C118.269 326.272 117.17 325.312 116.381 324.096C115.613 322.859 115.229 321.429 115.229 319.808C115.229 318.016 115.602 316.48 116.349 315.2C117.095 313.92 118.087 312.939 119.325 312.256C120.583 311.552 121.97 311.2 123.485 311.2C125.213 311.2 126.653 311.563 127.805 312.288C128.978 313.013 129.863 314.005 130.461 315.264C131.058 316.501 131.357 317.92 131.357 319.52C131.357 319.797 131.335 320.128 131.293 320.512C131.271 320.875 131.239 321.163 131.197 321.376H120.445C120.573 321.931 120.818 322.4 121.181 322.784C121.543 323.168 122.002 323.456 122.557 323.648C123.111 323.819 123.73 323.904 124.413 323.904H129.437V328H124.573ZM120.317 318.272H126.557C126.514 317.931 126.45 317.6 126.365 317.28C126.279 316.96 126.141 316.683 125.949 316.448C125.778 316.192 125.575 315.979 125.341 315.808C125.106 315.616 124.829 315.467 124.509 315.36C124.21 315.253 123.869 315.2 123.485 315.2C122.994 315.2 122.557 315.285 122.173 315.456C121.789 315.627 121.469 315.861 121.213 316.16C120.957 316.437 120.754 316.768 120.605 317.152C120.477 317.515 120.381 317.888 120.317 318.272ZM142.311 328C140.604 328 139.089 327.648 137.767 326.944C136.444 326.219 135.399 325.248 134.631 324.032C133.863 322.795 133.479 321.387 133.479 319.808C133.479 318.229 133.863 316.832 134.631 315.616C135.399 314.379 136.444 313.397 137.767 312.672C139.089 311.947 140.604 311.584 142.311 311.584H144.775V315.776H142.503C141.671 315.776 140.956 315.957 140.359 316.32C139.761 316.661 139.292 317.141 138.951 317.76C138.631 318.357 138.471 319.04 138.471 319.808C138.471 320.576 138.631 321.269 138.951 321.888C139.292 322.485 139.761 322.965 140.359 323.328C140.956 323.669 141.671 323.84 142.503 323.84H144.775V328H142.311ZM153.544 328C152.029 328 150.845 327.573 149.992 326.72C149.139 325.845 148.712 324.672 148.712 323.2V307.584H153.704V322.912C153.704 323.168 153.789 323.392 153.96 323.584C154.152 323.755 154.376 323.84 154.632 323.84H158.216V328H153.544ZM146.024 315.648V311.584H158.216V315.648H146.024ZM170.963 328V315.648H168.211V311.584H170.963V309.44C170.963 307.947 171.39 306.773 172.243 305.92C173.097 305.067 174.27 304.64 175.763 304.64H180.755V308.704H176.851C176.595 308.704 176.371 308.8 176.179 308.992C176.009 309.163 175.923 309.376 175.923 309.632V311.584H180.051V315.648H175.923V328H170.963ZM188.807 328.384C187.357 328.384 186.077 328.011 184.967 327.264C183.858 326.517 182.994 325.515 182.375 324.256C181.757 322.976 181.447 321.536 181.447 319.936C181.447 318.272 181.81 316.789 182.535 315.488C183.261 314.165 184.285 313.12 185.607 312.352C186.951 311.584 188.53 311.2 190.343 311.2C192.178 311.2 193.735 311.584 195.015 312.352C196.317 313.099 197.309 314.133 197.991 315.456C198.695 316.757 199.047 318.219 199.047 319.84V328H194.183V325.376H194.055C193.757 325.952 193.373 326.475 192.903 326.944C192.434 327.392 191.858 327.744 191.175 328C190.514 328.256 189.725 328.384 188.807 328.384ZM190.279 324.096C191.026 324.096 191.677 323.915 192.231 323.552C192.807 323.168 193.245 322.645 193.543 321.984C193.842 321.323 193.991 320.587 193.991 319.776C193.991 318.987 193.842 318.272 193.543 317.632C193.245 316.992 192.807 316.491 192.231 316.128C191.677 315.744 191.026 315.552 190.279 315.552C189.511 315.552 188.839 315.744 188.263 316.128C187.687 316.491 187.25 316.992 186.951 317.632C186.653 318.272 186.503 318.987 186.503 319.776C186.503 320.587 186.653 321.323 186.951 321.984C187.25 322.645 187.687 323.168 188.263 323.552C188.839 323.915 189.511 324.096 190.279 324.096ZM202.587 328V316.416C202.587 314.923 203.014 313.749 203.867 312.896C204.721 312.043 205.905 311.616 207.419 311.616H212.187V315.648H208.635C208.337 315.648 208.081 315.755 207.867 315.968C207.654 316.16 207.547 316.416 207.547 316.736V328H202.587ZM214.403 328V318.304C214.403 316.96 214.712 315.755 215.331 314.688C215.971 313.6 216.878 312.747 218.051 312.128C219.224 311.509 220.622 311.2 222.243 311.2C223.054 311.2 223.8 311.296 224.483 311.488C225.166 311.659 225.784 311.904 226.339 312.224C226.915 312.523 227.406 312.885 227.811 313.312H227.875C228.302 312.885 228.792 312.523 229.347 312.224C229.923 311.904 230.552 311.659 231.235 311.488C231.939 311.296 232.696 311.2 233.507 311.2C235.128 311.2 236.526 311.509 237.699 312.128C238.872 312.747 239.779 313.6 240.419 314.688C241.059 315.755 241.379 316.96 241.379 318.304V328H236.387V318.464C236.387 317.931 236.248 317.451 235.971 317.024C235.715 316.576 235.363 316.213 234.915 315.936C234.467 315.659 233.955 315.52 233.379 315.52C232.803 315.52 232.28 315.659 231.811 315.936C231.363 316.213 231.011 316.576 230.755 317.024C230.499 317.451 230.371 317.931 230.371 318.464V328H225.411V318.464C225.411 317.931 225.272 317.451 224.995 317.024C224.739 316.576 224.376 316.213 223.907 315.936C223.459 315.659 222.947 315.52 222.371 315.52C221.795 315.52 221.272 315.659 220.803 315.936C220.355 316.213 220.003 316.576 219.747 317.024C219.491 317.451 219.363 317.931 219.363 318.464V328H214.403ZM249.987 333.76C248.622 332.117 247.48 330.091 246.563 327.68C245.646 325.248 245.187 322.421 245.187 319.2C245.187 315.979 245.646 313.152 246.563 310.72C247.48 308.288 248.622 306.261 249.987 304.64H255.043C253.635 306.304 252.472 308.363 251.555 310.816C250.659 313.248 250.211 316.011 250.211 319.104C250.211 322.197 250.659 324.981 251.555 327.456C252.472 329.909 253.635 332.011 255.043 333.76H249.987ZM255.966 328V324.064H263.87C264.083 324.064 264.275 324.021 264.446 323.936C264.617 323.829 264.755 323.691 264.862 323.52C264.969 323.349 265.022 323.168 265.022 322.976C265.022 322.763 264.969 322.571 264.862 322.4C264.755 322.229 264.617 322.101 264.446 322.016C264.275 321.909 264.083 321.856 263.87 321.856H260.99C259.923 321.856 258.953 321.685 258.078 321.344C257.225 320.981 256.542 320.427 256.03 319.68C255.539 318.912 255.294 317.92 255.294 316.704C255.294 315.765 255.518 314.912 255.966 314.144C256.435 313.376 257.065 312.757 257.854 312.288C258.665 311.819 259.55 311.584 260.51 311.584H268.414V315.552H261.278C260.979 315.552 260.723 315.648 260.51 315.84C260.318 316.032 260.222 316.267 260.222 316.544C260.222 316.843 260.318 317.099 260.51 317.312C260.723 317.504 260.979 317.6 261.278 317.6H264.094C265.289 317.6 266.313 317.781 267.166 318.144C268.041 318.485 268.713 319.04 269.182 319.808C269.673 320.576 269.918 321.568 269.918 322.784C269.918 323.744 269.673 324.619 269.182 325.408C268.713 326.197 268.073 326.827 267.262 327.296C266.473 327.765 265.577 328 264.574 328H255.966ZM270.078 333.76C271.507 332.011 272.67 329.909 273.566 327.456C274.483 324.981 274.942 322.197 274.942 319.104C274.942 316.011 274.483 313.248 273.566 310.816C272.67 308.363 271.507 306.304 270.078 304.64H275.134C276.499 306.261 277.641 308.288 278.558 310.72C279.475 313.152 279.934 315.979 279.934 319.2C279.934 322.421 279.475 325.248 278.558 327.68C277.641 330.091 276.499 332.117 275.134 333.76H270.078ZM130.485 363.912C129.44 363.912 128.512 363.688 127.701 363.24C126.912 362.813 126.293 362.237 125.845 361.512C125.397 360.787 125.173 359.987 125.173 359.112C125.173 358.429 125.323 357.789 125.621 357.192C125.941 356.595 126.347 356.083 126.837 355.656C127.349 355.208 127.893 354.888 128.469 354.696C128.405 354.632 128.352 354.589 128.309 354.568C128.288 354.525 128.256 354.493 128.213 354.472L126.869 353.352C126.272 354.205 125.547 354.941 124.693 355.56C123.861 356.157 122.933 356.616 121.909 356.936C120.885 357.235 119.787 357.384 118.613 357.384C116.821 357.384 115.275 357.064 113.973 356.424C112.693 355.784 111.701 354.899 110.997 353.768C110.293 352.616 109.941 351.293 109.941 349.8C109.941 348.797 110.123 347.859 110.485 346.984C110.848 346.088 111.36 345.299 112.021 344.616C112.704 343.912 113.493 343.325 114.389 342.856C114.091 342.557 113.824 342.227 113.589 341.864C113.376 341.501 113.205 341.107 113.077 340.68C112.971 340.253 112.917 339.816 112.917 339.368C112.917 338.408 113.163 337.544 113.653 336.776C114.165 335.987 114.848 335.357 115.701 334.888C116.555 334.419 117.504 334.184 118.549 334.184C119.659 334.184 120.629 334.387 121.461 334.792C122.293 335.197 122.955 335.784 123.445 336.552C123.936 337.32 124.181 338.216 124.181 339.24C124.181 340.136 123.947 340.957 123.477 341.704C123.008 342.451 122.336 343.069 121.461 343.56L125.493 346.824L125.557 346.664C125.941 345.704 126.336 344.883 126.741 344.2C127.147 343.496 127.584 342.931 128.053 342.504C128.523 342.056 129.088 341.725 129.749 341.512C130.411 341.299 131.2 341.192 132.117 341.192H134.485V344.872H132.661C132.107 344.872 131.648 344.947 131.285 345.096C130.944 345.245 130.635 345.491 130.357 345.832C130.101 346.173 129.856 346.621 129.621 347.176C129.387 347.709 129.109 348.392 128.789 349.224L128.693 349.448L128.885 349.576C130.571 350.856 131.925 352.019 132.949 353.064C133.973 354.088 134.709 355.069 135.157 356.008C135.627 356.925 135.861 357.875 135.861 358.856C135.861 359.816 135.627 360.68 135.157 361.448C134.709 362.216 134.08 362.813 133.269 363.24C132.459 363.688 131.531 363.912 130.485 363.912ZM119.029 353.096C119.627 353.096 120.203 353.011 120.757 352.84C121.312 352.669 121.824 352.403 122.293 352.04C122.763 351.677 123.179 351.208 123.541 350.632L117.237 345.48C116.832 345.693 116.448 345.971 116.085 346.312C115.723 346.632 115.424 347.027 115.189 347.496C114.976 347.944 114.869 348.488 114.869 349.128C114.869 349.853 115.04 350.525 115.381 351.144C115.744 351.741 116.235 352.221 116.853 352.584C117.493 352.925 118.219 353.096 119.029 353.096ZM130.453 360.52C130.816 360.52 131.115 360.381 131.349 360.104C131.605 359.827 131.733 359.453 131.733 358.984C131.733 358.707 131.669 358.419 131.541 358.12C131.435 357.821 131.264 357.555 131.029 357.32C130.645 357.384 130.315 357.501 130.037 357.672C129.76 357.864 129.536 358.088 129.365 358.344C129.216 358.6 129.141 358.888 129.141 359.208C129.141 359.592 129.269 359.901 129.525 360.136C129.781 360.392 130.091 360.52 130.453 360.52ZM118.613 341.288C118.891 341.117 119.115 340.925 119.285 340.712C119.477 340.477 119.616 340.243 119.701 340.008C119.787 339.752 119.829 339.517 119.829 339.304C119.829 338.92 119.712 338.589 119.477 338.312C119.243 338.035 118.923 337.896 118.517 337.896C118.24 337.896 118.005 337.96 117.813 338.088C117.621 338.216 117.472 338.387 117.365 338.6C117.259 338.792 117.195 339.016 117.173 339.272C117.173 339.571 117.237 339.837 117.365 340.072C117.515 340.285 117.696 340.499 117.909 340.712C118.144 340.904 118.379 341.096 118.613 341.288ZM144.435 357V353.064H152.339C152.552 353.064 152.744 353.021 152.915 352.936C153.086 352.829 153.224 352.691 153.331 352.52C153.438 352.349 153.491 352.168 153.491 351.976C153.491 351.763 153.438 351.571 153.331 351.4C153.224 351.229 153.086 351.101 152.915 351.016C152.744 350.909 152.552 350.856 152.339 350.856H149.459C148.392 350.856 147.422 350.685 146.547 350.344C145.694 349.981 145.011 349.427 144.499 348.68C144.008 347.912 143.763 346.92 143.763 345.704C143.763 344.765 143.987 343.912 144.435 343.144C144.904 342.376 145.534 341.757 146.323 341.288C147.134 340.819 148.019 340.584 148.979 340.584H156.883V344.552H149.747C149.448 344.552 149.192 344.648 148.979 344.84C148.787 345.032 148.691 345.267 148.691 345.544C148.691 345.843 148.787 346.099 148.979 346.312C149.192 346.504 149.448 346.6 149.747 346.6H152.563C153.758 346.6 154.782 346.781 155.635 347.144C156.51 347.485 157.182 348.04 157.651 348.808C158.142 349.576 158.387 350.568 158.387 351.784C158.387 352.744 158.142 353.619 157.651 354.408C157.182 355.197 156.542 355.827 155.731 356.296C154.942 356.765 154.046 357 153.043 357H144.435ZM161.372 357V333.64H166.332V357H161.372ZM178.125 357.384C176.439 357.384 174.925 357.011 173.581 356.264C172.237 355.517 171.17 354.493 170.381 353.192C169.613 351.891 169.229 350.429 169.229 348.808C169.229 347.165 169.613 345.704 170.381 344.424C171.17 343.123 172.237 342.099 173.581 341.352C174.925 340.584 176.439 340.2 178.125 340.2C179.81 340.2 181.314 340.584 182.637 341.352C183.981 342.099 185.037 343.123 185.805 344.424C186.594 345.704 186.989 347.165 186.989 348.808C186.989 350.429 186.594 351.891 185.805 353.192C185.037 354.493 183.981 355.517 182.637 356.264C181.293 357.011 179.789 357.384 178.125 357.384ZM178.125 353.064C178.914 353.064 179.597 352.872 180.173 352.488C180.749 352.104 181.197 351.592 181.517 350.952C181.837 350.312 181.997 349.587 181.997 348.776C181.997 347.987 181.837 347.272 181.517 346.632C181.197 345.992 180.749 345.48 180.173 345.096C179.597 344.712 178.914 344.52 178.125 344.52C177.335 344.52 176.642 344.712 176.045 345.096C175.469 345.48 175.021 345.992 174.701 346.632C174.381 347.272 174.221 347.987 174.221 348.776C174.221 349.587 174.381 350.312 174.701 350.952C175.021 351.592 175.469 352.104 176.045 352.488C176.642 352.872 177.335 353.064 178.125 353.064ZM195.325 357C193.81 357 192.626 356.573 191.773 355.72C190.92 354.845 190.493 353.672 190.493 352.2V336.584H195.485V351.912C195.485 352.168 195.57 352.392 195.741 352.584C195.933 352.755 196.157 352.84 196.413 352.84H199.997V357H195.325ZM187.805 344.648V340.584H199.997V344.648H187.805ZM207.956 362.76C206.591 361.117 205.449 359.091 204.532 356.68C203.615 354.248 203.156 351.421 203.156 348.2C203.156 344.979 203.615 342.152 204.532 339.72C205.449 337.288 206.591 335.261 207.956 333.64H213.012C211.604 335.304 210.441 337.363 209.524 339.816C208.628 342.248 208.18 345.011 208.18 348.104C208.18 351.197 208.628 353.981 209.524 356.456C210.441 358.909 211.604 361.011 213.012 362.76H207.956ZM213.935 357V353.064H221.839C222.052 353.064 222.244 353.021 222.415 352.936C222.586 352.829 222.724 352.691 222.831 352.52C222.938 352.349 222.991 352.168 222.991 351.976C222.991 351.763 222.938 351.571 222.831 351.4C222.724 351.229 222.586 351.101 222.415 351.016C222.244 350.909 222.052 350.856 221.839 350.856H218.959C217.892 350.856 216.922 350.685 216.047 350.344C215.194 349.981 214.511 349.427 213.999 348.68C213.508 347.912 213.263 346.92 213.263 345.704C213.263 344.765 213.487 343.912 213.935 343.144C214.404 342.376 215.034 341.757 215.823 341.288C216.634 340.819 217.519 340.584 218.479 340.584H226.383V344.552H219.247C218.948 344.552 218.692 344.648 218.479 344.84C218.287 345.032 218.191 345.267 218.191 345.544C218.191 345.843 218.287 346.099 218.479 346.312C218.692 346.504 218.948 346.6 219.247 346.6H222.063C223.258 346.6 224.282 346.781 225.135 347.144C226.01 347.485 226.682 348.04 227.151 348.808C227.642 349.576 227.887 350.568 227.887 351.784C227.887 352.744 227.642 353.619 227.151 354.408C226.682 355.197 226.042 355.827 225.231 356.296C224.442 356.765 223.546 357 222.543 357H213.935ZM228.047 362.76C229.476 361.011 230.639 358.909 231.535 356.456C232.452 353.981 232.911 351.197 232.911 348.104C232.911 345.011 232.452 342.248 231.535 339.816C230.639 337.363 229.476 335.304 228.047 333.64H233.103C234.468 335.261 235.61 337.288 236.527 339.72C237.444 342.152 237.903 344.979 237.903 348.2C237.903 351.421 237.444 354.248 236.527 356.68C235.61 359.091 234.468 361.117 233.103 362.76H228.047Z" fill="black"/>
<defs>
<filter id="filter0_d_28_44" x="-3" y="-3" width="253.166" height="253.166" filterUnits="userSpaceOnUse" color-interpolation-filters="sRGB">
<feFlood flood-opacity="0" result="BackgroundImageFix"/>
<feColorMatrix in="SourceAlpha" type="matrix" values="0 0 0 0 0 0 0 0 0 0 0 0 0 0 0 0 0 0 127 0" result="hardAlpha"/>
<feOffset dx="4" dy="4"/>
<feGaussianBlur stdDeviation="20"/>
<feComposite in2="hardAlpha" operator="out"/>
<feColorMatrix type="matrix" values="0 0 0 0 0.575636 0 0 0 0 0.854167 0 0 0 0 0.224219 0 0 0 1 0"/>
<feBlend mode="normal" in2="BackgroundImageFix" result="effect1_dropShadow_28_44"/>
<feBlend mode="normal" in="SourceGraphic" in2="effect1_dropShadow_28_44" result="shape"/>
</filter>
<filter id="filter1_d_28_44" x="50.583" y="65.5828" width="67.6604" height="67.6604" filterUnits="userSpaceOnUse" color-interpolation-filters="sRGB">
<feFlood flood-opacity="0" result="BackgroundImageFix"/>
<feColorMatrix in="SourceAlpha" type="matrix" values="0 0 0 0 0 0 0 0 0 0 0 0 0 0 0 0 0 0 127 0" result="hardAlpha"/>
<feMorphology radius="2" operator="dilate" in="SourceAlpha" result="effect1_dropShadow_28_44"/>
<feOffset dx="4" dy="4"/>
<feGaussianBlur stdDeviation="2"/>
<feComposite in2="hardAlpha" operator="out"/>
<feColorMatrix type="matrix" values="0 0 0 0 0 0 0 0 0 0 0 0 0 0 0 0 0 0 0.25 0"/>
<feBlend mode="normal" in2="BackgroundImageFix" result="effect1_dropShadow_28_44"/>
<feBlend mode="normal" in="SourceGraphic" in2="effect1_dropShadow_28_44" result="shape"/>
</filter>
<filter id="filter2_d_28_44" x="100" y="61.0002" width="253.166" height="253.166" filterUnits="userSpaceOnUse" color-interpolation-filters="sRGB">
<feFlood flood-opacity="0" result="BackgroundImageFix"/>
<feColorMatrix in="SourceAlpha" type="matrix" values="0 0 0 0 0 0 0 0 0 0 0 0 0 0 0 0 0 0 127 0" result="hardAlpha"/>
<feOffset dx="4" dy="4"/>
<feGaussianBlur stdDeviation="20"/>
<feComposite in2="hardAlpha" operator="out"/>
<feColorMatrix type="matrix" values="0 0 0 0 0.575636 0 0 0 0 0.854167 0 0 0 0 0.224219 0 0 0 1 0"/>
<feBlend mode="normal" in2="BackgroundImageFix" result="effect1_dropShadow_28_44"/>
<feBlend mode="normal" in="SourceGraphic" in2="effect1_dropShadow_28_44" result="shape"/>
</filter>
<filter id="filter3_d_28_44" x="153.583" y="129.583" width="67.6604" height="67.6604" filterUnits="userSpaceOnUse" color-interpolation-filters="sRGB">
<feFlood flood-opacity="0" result="BackgroundImageFix"/>
<feColorMatrix in="SourceAlpha" type="matrix" values="0 0 0 0 0 0 0 0 0 0 0 0 0 0 0 0 0 0 127 0" result="hardAlpha"/>
<feMorphology radius="2" operator="dilate" in="SourceAlpha" result="effect1_dropShadow_28_44"/>
<feOffset dx="4" dy="4"/>
<feGaussianBlur stdDeviation="2"/>
<feComposite in2="hardAlpha" operator="out"/>
<feColorMatrix type="matrix" values="0 0 0 0 0 0 0 0 0 0 0 0 0 0 0 0 0 0 0.25 0"/>
<feBlend mode="normal" in2="BackgroundImageFix" result="effect1_dropShadow_28_44"/>
<feBlend mode="normal" in="SourceGraphic" in2="effect1_dropShadow_28_44" result="shape"/>
</filter>
<filter id="filter4_d_28_44" x="209" y="114" width="67.6604" height="67.6604" filterUnits="userSpaceOnUse" color-interpolation-filters="sRGB">
<feFlood flood-opacity="0" result="BackgroundImageFix"/>
<feColorMatrix in="SourceAlpha" type="matrix" values="0 0 0 0 0 0 0 0 0 0 0 0 0 0 0 0 0 0 127 0" result="hardAlpha"/>
<feMorphology radius="2" operator="dilate" in="SourceAlpha" result="effect1_dropShadow_28_44"/>
<feOffset dx="4" dy="4"/>
<feGaussianBlur stdDeviation="2"/>
<feComposite in2="hardAlpha" operator="out"/>
<feColorMatrix type="matrix" values="0 0 0 0 0 0 0 0 0 0 0 0 0 0 0 0 0 0 0.25 0"/>
<feBlend mode="normal" in2="BackgroundImageFix" result="effect1_dropShadow_28_44"/>
<feBlend mode="normal" in="SourceGraphic" in2="effect1_dropShadow_28_44" result="shape"/>
</filter>
<clipPath id="clip0_28_44">
<rect x="33" y="71.5891" width="140" height="140" rx="16" transform="rotate(-16 33 71.5891)" fill="white"/>
</clipPath>
<clipPath id="clip1_28_44">
<rect x="136" y="135.589" width="140" height="140" rx="16" transform="rotate(-16 136 135.589)" fill="white"/>
</clipPath>
</defs>
</svg>
