<svg width="114" height="38" viewBox="0 0 114 38" fill="none" xmlns="http://www.w3.org/2000/svg">
<path d="M22.72 37.8C21.3867 37.8 20.2 37.5333 19.16 37C18.1467 36.4933 17.3467 35.7333 16.76 34.72C16.1733 33.7067 15.88 32.4933 15.88 31.08C15.88 30.7333 15.8933 30.3733 15.92 30C15.9467 29.6533 15.9867 29.2933 16.04 28.92C13.8533 29.0533 11.8267 28.8 9.96 28.16C8.09333 27.52 6.46667 26.5733 5.08 25.32C3.69333 24.04 2.61333 22.5067 1.84 20.72C1.06667 18.9067 0.68 16.92 0.68 14.76C0.68 12.7867 1.01333 10.9467 1.68 9.24C2.34667 7.50667 3.30667 5.98667 4.56 4.68C5.81333 3.37333 7.32 2.36 9.08 1.64C10.8667 0.893333 12.84 0.52 15 0.52C17.16 0.52 19.12 0.879999 20.88 1.6C22.64 2.32 24.1467 3.33333 25.4 4.64C26.6533 5.92 27.6133 7.4 28.28 9.08C28.9733 10.76 29.32 12.5733 29.32 14.52V30.64C29.32 32.08 29.0533 33.3333 28.52 34.4C27.9867 35.4933 27.2267 36.3333 26.24 36.92C25.28 37.5067 24.1067 37.8 22.72 37.8ZM22.48 34.36C23.36 34.36 24.08 34.04 24.64 33.4C25.2 32.7867 25.48 31.8933 25.48 30.72V21.2C24.12 22.08 23.04 22.9733 22.24 23.88C21.44 24.7867 20.84 25.6667 20.44 26.52C20.0667 27.3733 19.8133 28.16 19.68 28.88C19.5733 29.6 19.52 30.2 19.52 30.68C19.52 31.4533 19.6533 32.1067 19.92 32.64C20.2133 33.2 20.5867 33.6267 21.04 33.92C21.4933 34.2133 21.9733 34.36 22.48 34.36ZM15 25.64C15.4267 25.64 15.8267 25.6267 16.2 25.6C16.5733 25.5467 16.9733 25.4667 17.4 25.36C17.7733 24.4533 18.2933 23.5333 18.96 22.6C19.6533 21.6667 20.52 20.7467 21.56 19.84C22.6267 18.9067 23.9333 18.04 25.48 17.24V14.52C25.48 13 25.2133 11.6 24.68 10.32C24.1733 9.01333 23.44 7.89333 22.48 6.96C21.5467 6 20.44 5.25333 19.16 4.72C17.88 4.16 16.4933 3.88 15 3.88C13.48 3.88 12.08 4.16 10.8 4.72C9.54667 5.25333 8.44 6.01333 7.48 7C6.54667 7.98667 5.81333 9.14667 5.28 10.48C4.77333 11.7867 4.52 13.2133 4.52 14.76C4.52 16.3067 4.77333 17.7467 5.28 19.08C5.81333 20.3867 6.54667 21.5333 7.48 22.52C8.44 23.5067 9.54667 24.28 10.8 24.84C12.08 25.3733 13.48 25.64 15 25.64ZM34.6906 29V14.4C34.6906 12.5867 35.1973 11.1733 36.2106 10.16C37.2506 9.12 38.6773 8.6 40.4906 8.6H44.6906V11.76H41.1706C40.2906 11.76 39.5973 12.0133 39.0906 12.52C38.6106 13.0267 38.3706 13.7333 38.3706 14.64V29H34.6906ZM58.4519 29C56.2119 29 54.2252 28.5867 52.4919 27.76C50.7585 26.9067 49.3985 25.72 48.4119 24.2C47.4519 22.6533 46.9719 20.8533 46.9719 18.8C46.9719 16.7733 47.3852 14.96 48.2119 13.36C49.0385 11.7333 50.1852 10.4533 51.6519 9.52C53.1185 8.58667 54.8252 8.12 56.7719 8.12C58.8785 8.12 60.6252 8.57333 62.0119 9.48C63.4252 10.3867 64.4785 11.6133 65.1719 13.16C65.8652 14.68 66.2119 16.3867 66.2119 18.28C66.2119 18.5733 66.1985 18.88 66.1719 19.2C66.1719 19.52 66.1452 19.8 66.0919 20.04H50.8919C51.0252 21.2933 51.4385 22.36 52.1319 23.24C52.8252 24.0933 53.7052 24.7467 54.7719 25.2C55.8652 25.6267 57.0652 25.84 58.3719 25.84H63.6919V29H58.4519ZM50.8519 17.44H62.4919C62.4919 16.9333 62.4385 16.4 62.3319 15.84C62.2252 15.2533 62.0385 14.6933 61.7719 14.16C61.5052 13.6 61.1452 13.1067 60.6919 12.68C60.2652 12.2267 59.7185 11.8667 59.0519 11.6C58.4119 11.3333 57.6519 11.2 56.7719 11.2C55.8385 11.2 55.0119 11.3867 54.2919 11.76C53.5985 12.1067 52.9985 12.5867 52.4919 13.2C51.9852 13.7867 51.5985 14.4533 51.3319 15.2C51.0652 15.9467 50.9052 16.6933 50.8519 17.44ZM70.9044 29V17.2C70.9044 15.3867 71.3044 13.8 72.1044 12.44C72.931 11.08 74.0644 10.0267 75.5044 9.28C76.9444 8.50667 78.5844 8.12 80.4244 8.12C82.291 8.12 83.931 8.50667 85.3444 9.28C86.7844 10.0267 87.9044 11.08 88.7044 12.44C89.531 13.8 89.9444 15.3867 89.9444 17.2V29H86.2644V17.24C86.2644 16.0133 85.9844 14.96 85.4244 14.08C84.891 13.1733 84.171 12.48 83.2644 12C82.3844 11.52 81.4377 11.28 80.4244 11.28C79.411 11.28 78.451 11.52 77.5444 12C76.6644 12.48 75.9444 13.1733 75.3844 14.08C74.851 14.96 74.5844 16.0133 74.5844 17.24V29H70.9044ZM106.147 29C103.907 29 101.921 28.5867 100.187 27.76C98.4539 26.9067 97.0939 25.72 96.1072 24.2C95.1472 22.6533 94.6672 20.8533 94.6672 18.8C94.6672 16.7733 95.0805 14.96 95.9072 13.36C96.7339 11.7333 97.8805 10.4533 99.3472 9.52C100.814 8.58667 102.521 8.12 104.467 8.12C106.574 8.12 108.321 8.57333 109.707 9.48C111.121 10.3867 112.174 11.6133 112.867 13.16C113.561 14.68 113.907 16.3867 113.907 18.28C113.907 18.5733 113.894 18.88 113.867 19.2C113.867 19.52 113.841 19.8 113.787 20.04H98.5872C98.7205 21.2933 99.1339 22.36 99.8272 23.24C100.521 24.0933 101.401 24.7467 102.467 25.2C103.561 25.6267 104.761 25.84 106.067 25.84H111.387V29H106.147ZM98.5472 17.44H110.187C110.187 16.9333 110.134 16.4 110.027 15.84C109.921 15.2533 109.734 14.6933 109.467 14.16C109.201 13.6 108.841 13.1067 108.387 12.68C107.961 12.2267 107.414 11.8667 106.747 11.6C106.107 11.3333 105.347 11.2 104.467 11.2C103.534 11.2 102.707 11.3867 101.987 11.76C101.294 12.1067 100.694 12.5867 100.187 13.2C99.6805 13.7867 99.2939 14.4533 99.0272 15.2C98.7605 15.9467 98.6005 16.6933 98.5472 17.44Z" fill="black"/>
</svg>
