<svg width="30" height="38" viewBox="0 0 30 38" fill="none" xmlns="http://www.w3.org/2000/svg">
<path d="M22.72 37.8C21.3867 37.8 20.2 37.5333 19.16 37C18.1467 36.4933 17.3467 35.7333 16.76 34.72C16.1733 33.7067 15.88 32.4933 15.88 31.08C15.88 30.7333 15.8933 30.3733 15.92 30C15.9467 29.6533 15.9867 29.2933 16.04 28.92C13.8533 29.0533 11.8267 28.8 9.96 28.16C8.09333 27.52 6.46667 26.5733 5.08 25.32C3.69333 24.04 2.61333 22.5067 1.84 20.72C1.06667 18.9067 0.68 16.92 0.68 14.76C0.68 12.7867 1.01333 10.9467 1.68 9.24C2.34667 7.50667 3.30667 5.98667 4.56 4.68C5.81333 3.37333 7.32 2.36 9.08 1.64C10.8667 0.893333 12.84 0.52 15 0.52C17.16 0.52 19.12 0.879999 20.88 1.6C22.64 2.32 24.1467 3.33333 25.4 4.64C26.6533 5.92 27.6133 7.4 28.28 9.08C28.9733 10.76 29.32 12.5733 29.32 14.52V30.64C29.32 32.08 29.0533 33.3333 28.52 34.4C27.9867 35.4933 27.2267 36.3333 26.24 36.92C25.28 37.5067 24.1067 37.8 22.72 37.8ZM22.48 34.36C23.36 34.36 24.08 34.04 24.64 33.4C25.2 32.7867 25.48 31.8933 25.48 30.72V21.2C24.12 22.08 23.04 22.9733 22.24 23.88C21.44 24.7867 20.84 25.6667 20.44 26.52C20.0667 27.3733 19.8133 28.16 19.68 28.88C19.5733 29.6 19.52 30.2 19.52 30.68C19.52 31.4533 19.6533 32.1067 19.92 32.64C20.2133 33.2 20.5867 33.6267 21.04 33.92C21.4933 34.2133 21.9733 34.36 22.48 34.36ZM15 25.64C15.4267 25.64 15.8267 25.6267 16.2 25.6C16.5733 25.5467 16.9733 25.4667 17.4 25.36C17.7733 24.4533 18.2933 23.5333 18.96 22.6C19.6533 21.6667 20.52 20.7467 21.56 19.84C22.6267 18.9067 23.9333 18.04 25.48 17.24V14.52C25.48 13 25.2133 11.6 24.68 10.32C24.1733 9.01333 23.44 7.89333 22.48 6.96C21.5467 6 20.44 5.25333 19.16 4.72C17.88 4.16 16.4933 3.88 15 3.88C13.48 3.88 12.08 4.16 10.8 4.72C9.54667 5.25333 8.44 6.01333 7.48 7C6.54667 7.98667 5.81333 9.14667 5.28 10.48C4.77333 11.7867 4.52 13.2133 4.52 14.76C4.52 16.3067 4.77333 17.7467 5.28 19.08C5.81333 20.3867 6.54667 21.5333 7.48 22.52C8.44 23.5067 9.54667 24.28 10.8 24.84C12.08 25.3733 13.48 25.64 15 25.64Z" fill="black"/>
</svg>
